<svg width="40" height="41" viewBox="0 0 40 41" fill="none" xmlns="http://www.w3.org/2000/svg">
<rect width="40" height="40" rx="20" fill="#001AFF"/>
<g clip-path="url(#clip0_55_16)">
<path d="M29.8897 21.9998L20.8325 40.1259L21.8356 28.0786L14.8496 29.8255C14.7167 29.8586 14.5784 29.8641 14.4432 29.8416C14.3081 29.8192 14.179 29.7693 14.0639 29.6949C13.9487 29.6206 13.85 29.5235 13.7739 29.4096C13.6977 29.2956 13.6456 29.1672 13.6209 29.0324L10 9.18454C9.97332 9.03842 9.97931 8.88819 10.0176 8.74468C10.0559 8.60117 10.1255 8.46795 10.2215 8.35463C10.3174 8.2413 10.4373 8.1507 10.5724 8.08936C10.7076 8.02802 10.8547 7.99746 11.0031 7.99989H27.3371C27.5033 7.99967 27.6669 8.04079 27.8133 8.11955C27.9597 8.19831 28.0842 8.31224 28.1757 8.45111C28.2672 8.58997 28.3228 8.74942 28.3375 8.91512C28.3522 9.08081 28.3255 9.24756 28.2598 9.40038L22.8386 22.055L28.7463 20.5491C28.9362 20.4973 29.137 20.5026 29.3239 20.5643C29.5108 20.626 29.6755 20.7413 29.7973 20.8959C29.9192 21.0506 29.993 21.2377 30.0094 21.434C30.0258 21.6302 29.9842 21.827 29.8897 21.9998Z" fill="#F1C40F"/>
<path opacity="0.4" d="M29.8898 21.9999L20.8326 40.126L28.8567 22.0551L19.8296 25.0669L24.8446 8H27.3522C27.5183 7.99978 27.682 8.0409 27.8284 8.11966C27.9748 8.19842 28.0993 8.31235 28.1908 8.45122C28.2823 8.59009 28.3379 8.74953 28.3526 8.91523C28.3673 9.08092 28.3406 9.24767 28.2749 9.40049L22.8386 22.0551L28.7463 20.5492C28.9362 20.4974 29.1371 20.5027 29.324 20.5644C29.5109 20.6261 29.6755 20.7414 29.7974 20.896C29.9193 21.0507 29.993 21.2378 30.0095 21.4341C30.0259 21.6303 29.9843 21.8271 29.8898 21.9999Z" fill="white"/>
</g>
<defs>
<clipPath id="clip0_55_16">
<rect width="20" height="32.126" fill="white" transform="translate(10 8)"/>
</clipPath>
</defs>
</svg>
